# This file uses centimeters as units for non-parametric coordinates.

mtllib Keyboardtemp.mtl
g default
v -1.350000 0.250000 3.379200
v 1.350000 0.250000 3.379200
v 1.350000 0.250000 -3.379200
v -1.350000 0.250000 -3.379200
v -1.350000 0.450000 3.379200
v 1.350000 0.450000 3.379200
v 1.350000 0.450000 -3.379200
v -1.350000 0.450000 -3.379200
v -1.500000 -0.250000 3.461817
v -1.441817 -0.250000 3.520000
v -1.470003 0.250000 3.491843
v -1.500000 0.250000 3.461817
v -1.441817 0.250000 3.520000
v 1.500000 -0.250000 3.461817
v 1.441817 -0.250000 3.520000
v 1.470003 0.250000 3.491843
v 1.441817 0.250000 3.520000
v 1.500000 0.250000 3.461817
v -1.470003 0.250000 -3.491843
v -1.441817 0.250000 -3.520000
v -1.500000 0.250000 -3.461817
v -1.500000 -0.250000 -3.461817
v -1.441817 -0.250000 -3.520000
v 1.470003 0.250000 -3.491843
v 1.500000 0.250000 -3.461817
v 1.441817 0.250000 -3.520000
v 1.500000 -0.250000 -3.461817
v 1.441817 -0.250000 -3.520000
vt 0.375000 0.250000
vt 0.625000 0.250000
vt 0.625000 0.500000
vt 0.375000 0.500000
vt 0.375000 0.250000
vt 0.375000 0.250000
vt 0.375000 0.500000
vt 0.375000 0.497934
vt 0.375000 0.252066
vt 0.375000 0.500000
vt 0.625000 0.250000
vt 0.625000 0.252066
vt 0.625000 0.250000
vt 0.625000 0.500000
vt 0.625000 0.500000
vt 0.625000 0.752066
vt 0.625000 0.997934
vt 0.620151 1.000000
vt 0.379849 1.000000
vt 0.375000 0.997934
vt 0.620151 0.000000
vt 0.127066 0.250000
vt 0.127066 0.000000
vt 0.372934 0.000000
vt 0.379849 0.750000
vt 0.872934 0.000000
vt 0.872934 0.250000
vt 0.379849 0.000000
vt 0.379849 0.250000
vt 0.627066 0.000000
vt 0.627066 0.250000
vt 0.375000 0.500000
vt 0.375000 0.752066
vt 0.620151 0.500000
vt 0.620151 0.750000
vt 0.372934 0.250000
vt 0.620151 0.250000
vt 0.379849 0.500000
vt 0.625000 0.497934
vn 0.000000 0.000000 1.000000
vn 0.000000 0.000000 1.000000
vn 0.000000 0.000000 1.000000
vn 0.000000 0.000000 1.000000
vn 0.000000 1.000000 0.000000
vn 0.000000 1.000000 0.000000
vn 0.000000 1.000000 0.000000
vn 0.000000 1.000000 0.000000
vn 0.000000 0.000000 -1.000000
vn 0.000000 0.000000 -1.000000
vn 0.000000 0.000000 -1.000000
vn 0.000000 0.000000 -1.000000
vn 1.000000 0.000000 0.000000
vn 1.000000 0.000000 0.000000
vn 1.000000 0.000000 0.000000
vn 1.000000 0.000000 0.000000
vn -1.000000 0.000000 0.000000
vn -1.000000 0.000000 0.000000
vn -1.000000 0.000000 0.000000
vn -1.000000 0.000000 0.000000
vn 0.000000 0.000000 1.000000
vn 0.000000 0.000000 1.000000
vn 0.000000 0.000000 1.000000
vn 0.000000 0.000000 1.000000
vn 1.000000 0.000000 0.000000
vn 1.000000 0.000000 0.000000
vn 1.000000 0.000000 0.000000
vn 1.000000 0.000000 0.000000
vn 0.000000 0.000000 -1.000000
vn 0.000000 0.000000 -1.000000
vn 0.000000 0.000000 -1.000000
vn 0.000000 0.000000 -1.000000
vn -1.000000 0.000000 0.000000
vn -1.000000 0.000000 0.000000
vn -1.000000 0.000000 0.000000
vn -1.000000 0.000000 0.000000
vn 0.000000 1.000000 0.000000
vn 0.000000 1.000000 0.000000
vn 0.000000 1.000000 0.000000
vn 0.000000 1.000000 0.000000
vn 0.000000 1.000000 0.000000
vn 0.000000 1.000000 0.000000
vn 0.000000 1.000000 0.000000
vn 0.000000 1.000000 0.000000
vn 0.000000 1.000000 0.000000
vn 0.000000 1.000000 0.000000
vn 0.000000 1.000000 0.000000
vn 0.000000 1.000000 0.000000
vn 0.000000 1.000000 0.000000
vn 0.000000 1.000000 0.000000
vn 0.000000 1.000000 0.000000
vn 0.000000 1.000000 0.000000
vn 0.000000 1.000000 0.000000
vn 0.000000 1.000000 0.000000
vn 0.000000 -1.000000 0.000000
vn 0.000000 -1.000000 0.000000
vn 0.000000 -1.000000 0.000000
vn 0.000000 -1.000000 0.000000
vn 0.000000 -1.000000 0.000000
vn 0.000000 -1.000000 0.000000
vn 0.000000 -1.000000 0.000000
vn 0.000000 -1.000000 0.000000
vn 0.000000 1.000000 0.000000
vn 0.000000 1.000000 0.000000
vn 0.000000 1.000000 0.000000
vn 0.000000 1.000000 0.000000
vn 0.000000 1.000000 0.000000
vn 0.000000 1.000000 0.000000
vn -0.707106 0.000000 0.707107
vn -0.707106 0.000000 0.707107
vn -0.707106 0.000000 0.707107
vn -0.707106 0.000000 0.707107
vn 0.707106 0.000000 0.707107
vn 0.707106 0.000000 0.707107
vn 0.707106 0.000000 0.707107
vn 0.707106 0.000000 0.707107
vn -0.707106 0.000000 -0.707107
vn -0.707106 0.000000 -0.707107
vn -0.707106 0.000000 -0.707107
vn -0.707106 0.000000 -0.707107
vn 0.707106 0.000000 -0.707107
vn 0.707106 0.000000 -0.707107
vn 0.707106 0.000000 -0.707107
vn 0.707106 0.000000 -0.707107
vn 0.000000 -1.000000 0.000000
vn 0.000000 -0.000000 0.000000
vn 0.000000 -0.000000 0.000000
vn 0.000000 -1.000000 0.000000
vn 0.000000 -0.000000 0.000000
vn 0.000000 -0.000000 0.000000
vn 0.000000 -1.000000 0.000000
vn 0.000000 -0.000000 0.000000
vn 0.000000 -0.000000 0.000000
vn 0.000000 -1.000000 0.000000
vn 0.000000 -0.000000 0.000000
vn 0.000000 -0.000000 0.000000
s off
g pCube16
usemtl initialShadingGroup
f 13/29/1 10/28/2 15/21/3 17/37/4
f 5/1/5 6/2/6 7/3/7 8/4/8
f 23/25/9 20/38/10 26/34/11 28/35/12
f 18/31/13 14/30/14 27/26/15 25/27/16
f 21/22/17 22/23/18 9/24/19 12/36/20
f 1/6/21 2/13/22 6/2/23 5/1/24
f 2/13/25 3/15/26 7/3/27 6/2/28
f 3/15/29 4/10/30 8/4/31 7/3/32
f 4/10/33 1/6/34 5/1/35 8/4/36
f 11/5/37 13/29/38 17/37/39 16/11/40 2/13/41 1/6/42
f 16/11/43 18/12/44 25/39/45 24/14/46 3/15/47 2/13/48
f 19/7/49 21/8/50 12/9/51 11/5/52 1/6/53 4/10/54
f 22/33/55 23/25/56 28/35/57 27/16/58 14/17/59 15/18/60 10/19/61 9/20/62
f 24/14/63 26/34/64 20/38/65 19/7/66 4/10/67 3/15/68
f 9/24/69 10/28/70 13/29/71 12/36/72
f 15/21/73 14/30/74 18/31/75 17/37/76
f 21/32/77 20/38/78 23/25/79 22/33/80
f 26/34/81 25/39/82 27/16/83 28/35/84
f 11/5/85 12/36/86 13/29/87
f 16/11/88 17/37/89 18/31/90
f 19/7/91 20/38/92 21/32/93
f 24/14/94 25/39/95 26/34/96
