# This file uses meters as units for non-parametric coordinates.

mtllib chipscrushedUV.mtl
g default
v -4.452495 2.399714 -9.112584
v -3.601225 2.597916 -9.298961
v -4.600785 2.314664 -7.940516
v -3.669114 2.091256 -7.993195
v -4.006139 -0.102351 -8.102212
v -4.000000 -0.600000 -9.300000
v -3.909492 1.471190 -7.926458
v -3.985462 0.493032 -7.907764
v -3.982142 1.594163 -9.112006
v -3.999297 0.407124 -9.114542
v -4.099982 2.399952 -9.299880
v -4.106159 2.312448 -7.818534
v -3.695677 2.332536 -8.527767
v -4.107591 1.981011 -8.511216
v -4.599083 2.399529 -8.500055
v -3.585865 1.600230 -9.202608
v -3.285339 1.984198 -9.283070
v -3.225026 1.236391 -9.248898
v -3.337715 1.341118 -8.222006
v -3.420311 1.808259 -8.195446
v -3.546724 1.569732 -8.004749
v -3.374685 0.675207 -8.214478
v -3.580886 0.411256 -7.849866
v -3.546308 0.195821 -8.116591
v -3.235915 0.764144 -9.245391
v -3.461577 0.097345 -9.270776
v -3.574740 0.403380 -9.205815
v -4.467586 1.630814 -8.007667
v -4.648549 1.843110 -8.333498
v -4.698508 1.402230 -8.207035
v -4.705631 1.339316 -9.081022
v -4.676294 1.881553 -9.053412
v -4.400669 1.600060 -9.198677
v -4.590846 0.633189 -8.970977
v -4.413525 0.395494 -9.186714
v -4.530187 0.093046 -9.236745
v -4.566492 0.633646 -8.172401
v -4.527200 0.108915 -7.784756
v -4.404289 0.402071 -7.843775
vt 0.802629 0.535887
vt 0.700135 0.551433
vt 0.587935 0.551467
vt 0.598774 0.456552
vt 0.730644 0.449510
vt 0.753809 0.368752
vt 0.593716 0.357227
vt 0.790329 0.410623
vt 0.613874 0.227882
vt 0.760153 0.227966
vt 0.565192 0.128941
vt 0.831161 0.131848
vt 0.574356 0.184342
vt 0.553605 0.001992
vt 0.773010 0.093149
vt 0.820350 0.185547
vt 0.536898 0.338374
vt 0.348797 0.357558
vt 0.347418 0.235579
vt 0.536256 0.251870
vt 0.543158 0.475354
vt 0.343932 0.443126
vt 0.329487 0.147767
vt 0.540906 0.129729
vt 0.546068 0.587772
vt 0.404805 0.539161
vt 0.306884 0.494965
vt 0.309000 0.399434
vt 0.280630 0.187230
vt 0.326853 0.093149
vt 0.546259 0.001992
vt 0.678497 0.721490
vt 0.603044 0.718458
vt 0.603306 0.591575
vt 0.683362 0.623569
vt 0.604438 0.862922
vt 0.695798 0.862754
vt 0.513015 0.716413
vt 0.512703 0.613919
vt 0.539866 0.828614
vt 0.048266 0.038298
vt 0.112838 0.038254
vt 0.204198 0.001992
vt 0.134423 0.185855
vt 0.057760 0.184775
vt 0.007272 0.133212
vt 0.262061 0.114410
vt 0.207012 0.184744
vt 0.001898 0.232537
vt 0.131281 0.403292
vt 0.055405 0.405422
vt 0.022924 0.361882
vt 0.273109 0.251390
vt 0.271114 0.337894
vt 0.209050 0.403978
vt 0.034035 0.460823
vt 0.131152 0.587772
vt 0.229778 0.460036
vt 0.890204 0.957085
vt 0.846172 0.843504
vt 0.912622 0.861555
vt 0.935778 0.905247
vt 0.710795 0.911631
vt 0.743943 0.872743
vt 0.810148 0.997602
vt 0.719544 0.998008
vt 0.950908 0.819678
vt 0.832256 0.664329
vt 0.906365 0.649350
vt 0.944136 0.697699
vt 0.701644 0.830872
vt 0.725826 0.690086
vt 0.755538 0.647668
vt 0.828469 0.555270
vt 0.912699 0.609888
vt 0.733023 0.593969
vn -0.980216 0.190491 -0.053759
vn -0.980216 0.190491 -0.053759
vn -0.980216 0.190491 -0.053759
vn -0.988987 0.146181 -0.023133
vn -0.988687 0.147998 -0.024384
vn -0.106934 -0.099106 -0.989314
vn -0.106934 -0.099106 -0.989314
vn -0.135566 -0.098519 -0.985858
vn -0.127594 -0.098691 -0.986904
vn -0.108351 -0.059669 -0.992320
vn -0.125173 -0.089560 -0.988084
vn 0.830354 0.511776 0.220451
vn 0.830354 0.511775 0.220451
vn 0.830354 0.511776 0.220451
vn 0.918758 0.350675 0.181413
vn 0.918794 0.350592 0.181392
vn -0.122868 -0.121041 0.985014
vn -0.145207 -0.128579 0.981011
vn 0.439476 0.066574 0.895784
vn 0.502731 0.086737 0.860080
vn -0.613106 -0.775707 0.149600
vn -0.613106 -0.775707 0.149600
vn -0.820229 -0.562059 0.106369
vn -0.786912 -0.606207 0.115251
vn 0.234179 -0.332667 0.913506
vn 0.274436 -0.486896 0.829227
vn 0.399659 -0.082739 0.912922
vn 0.223373 -0.344774 0.911721
vn 0.689952 -0.694873 0.202777
vn 0.689951 -0.694873 0.202777
vn 0.816720 -0.553436 0.163333
vn 0.815437 -0.555180 0.163821
vn -0.996851 -0.075766 0.023392
vn -0.997259 -0.070228 0.023301
vn -0.991942 -0.125348 0.018409
vn -0.992419 -0.121610 0.017776
vn 0.991937 0.038215 0.120831
vn 0.991513 0.048330 0.120690
vn 0.972073 -0.208065 0.108544
vn 0.976955 -0.182460 0.110759
vn -0.015926 0.057795 0.998201
vn 0.018466 0.058350 0.998125
vn -0.308080 -0.037723 0.950612
vn -0.366918 0.059253 0.928364
vn -0.350069 0.054594 0.935132
vn -0.200850 0.009466 0.979576
vn 0.263092 -0.145547 0.953729
vn -0.185667 -0.092926 -0.978209
vn -0.183220 -0.030747 -0.982591
vn -0.135604 -0.016658 -0.990623
vn -0.136746 -0.016202 -0.990474
vn -0.181792 -0.001100 -0.983336
vn -0.182539 0.003722 -0.983192
vn -0.185855 0.050969 -0.981254
vn -0.032172 0.168774 -0.985130
vn -0.031439 0.168764 -0.985155
vn -0.187576 0.165500 -0.968207
vn -0.402769 0.889674 0.215076
vn 0.047221 0.990010 0.132856
vn 0.195525 0.970423 -0.141592
vn -0.166434 0.983673 -0.068466
vn 0.453550 0.889523 0.055153
vn 0.402989 0.897978 -0.176733
vn -0.174976 0.918196 0.355387
vn -0.484552 0.812287 0.324652
vn 0.479276 0.824978 0.299510
vn 0.428481 0.061020 0.901488
vn 0.440217 0.048006 0.896607
vn -0.270678 -0.129517 0.953918
vn -0.227593 -0.155977 0.961183
vn -0.227593 -0.155977 0.961183
vn -0.101903 -0.031299 -0.994302
vn -0.043641 0.043967 -0.998079
vn -0.093525 -0.030609 -0.995146
vn 0.104334 0.172209 -0.979520
s 1
g pCube20
usemtl initialShadingGroup
f 3/1/1 15/2/2 1/3/3 32/4/4 29/5/5
s 2
f 1/41/6 11/42/7 2/43/8 9/44/9 33/45/10 32/46/11
s 3
f 2/25/12 13/26/13 4/27/14 20/22/15 17/21/16
s 4
f 4/59/17 7/60/18 21/61/19 20/62/20
s 1
f 6/14/21 5/15/22 38/12/23 36/11/24
s 4
f 5/74/25 24/75/26 23/69/27 8/68/28
s 3
f 5/30/29 6/31/30 26/24/31 24/23/32
s 1
f 30/6/33 31/7/34 34/9/35 37/10/36
s 3
f 18/17/37 19/18/38 22/19/39 25/20/40
s 4
f 8/68/41 7/60/42 28/64/43 30/71/44 37/72/45 39/73/46
f 5/74/25 8/68/28 39/73/46 38/76/47
s 2
f 9/44/9 2/43/8 17/47/48 16/48/49
f 10/50/50 9/44/51 16/48/49 18/53/52 25/54/53 27/55/54
f 6/57/55 10/50/56 27/55/54 26/58/57
s 11
f 13/32/58 14/33/59 12/34/60 4/35/61
f 14/33/59 15/38/62 3/39/63 12/34/60
f 11/36/64 14/33/59 13/32/58 2/37/65
f 1/40/66 15/38/62 14/33/59 11/36/64
s 4
f 19/67/67 21/61/19 7/60/42 8/68/41 23/69/27 22/70/68
s 3
f 18/17/37 17/21/16 20/22/15 19/18/38
s 2
f 16/48/49 17/47/48 18/53/52
s 4
f 19/18/67 20/22/20 21/28/19
s 3
f 22/19/39 24/23/32 26/24/31 25/20/40
s 4
f 22/19/68 23/29/27 24/23/26
s 2
f 25/54/53 26/58/57 27/55/54
s 4
f 29/63/69 28/64/43 7/60/18 4/59/17 12/65/70 3/66/71
s 2
f 31/49/72 33/45/10 9/44/51 10/50/50 35/51/73 34/52/74
s 1
f 30/6/33 29/5/5 32/4/4 31/7/34
s 4
f 28/8/43 29/5/69 30/6/44
s 2
f 31/49/72 32/46/11 33/45/10
f 36/56/75 35/51/73 10/50/56 6/57/55
s 1
f 34/9/35 36/11/24 38/12/23 37/10/36
s 2
f 34/9/74 35/13/73 36/11/75
s 4
f 37/10/45 38/12/47 39/16/46
