# This file uses centimeters as units for non-parametric coordinates.

mtllib Mousetemp.mtl
g default
v 0.000000 0.000000 5.600000
v 0.000000 0.000000 4.400000
v 0.680000 0.000000 5.100000
v 0.680000 0.000000 4.900000
v 0.741824 0.154509 5.100000
v 0.741824 0.154509 4.900000
v 0.631034 0.293893 5.100000
v 0.631033 0.293893 4.900000
v 0.458472 0.404509 5.100000
v 0.458472 0.404509 4.900000
v 0.241034 0.475529 5.000000
v 0.000000 0.500000 5.000000
v 0.660913 0.077254 5.100000
v 0.660913 0.077254 4.900000
v 0.141033 0.475529 5.000000
v 0.358473 0.404509 5.100000
v 0.358473 0.404509 4.900000
v 0.531034 0.293893 5.100000
v 0.531034 0.293893 4.900000
v 0.641825 0.154509 5.100000
v 0.641825 0.154509 4.900000
v 0.560912 0.077254 5.100000
v 0.560912 0.077254 4.900000
v -0.719322 0.143446 5.500000
v -0.831034 0.293893 5.475502
v -0.614388 0.275464 5.500000
v -0.558473 0.404509 5.475502
v -0.447889 0.382194 5.500000
v -0.241034 0.475529 5.475502
v -0.235934 0.451422 5.500000
v 0.000000 0.500000 5.475502
v 0.000000 0.475376 5.500000
v 0.241034 0.475529 5.475502
v 0.235934 0.451422 5.500000
v 0.458472 0.404509 5.475502
v 0.447889 0.382194 5.500000
v 0.631033 0.293893 5.475502
v 0.614388 0.275464 5.500000
v 0.741824 0.154509 5.475502
v 0.708726 0.156778 5.500000
v 0.633722 0.085166 5.500000
v 0.660913 0.077254 5.475502
v -0.754765 0.000000 5.500000
v -0.880000 0.000000 5.475502
v -0.762156 0.000000 5.500000
v -0.719322 0.143446 4.500000
v -0.831034 0.293893 4.524498
v -0.614388 0.275464 4.500000
v -0.558473 0.404509 4.524498
v -0.447889 0.382194 4.500000
v -0.241034 0.475529 4.524498
v -0.235934 0.451422 4.500000
v 0.000000 0.475376 4.500000
v 0.000000 0.500000 4.524498
v 0.235934 0.451422 4.500000
v 0.241034 0.475529 4.524498
v 0.447889 0.382194 4.500000
v 0.458472 0.404509 4.524498
v 0.614388 0.275464 4.500000
v 0.631033 0.293893 4.524498
v 0.708726 0.156778 4.500000
v 0.741824 0.154509 4.524498
v 0.633722 0.085166 4.500000
v 0.660913 0.077254 4.524498
v -0.762156 0.000000 4.500000
v -0.880000 0.000000 4.524498
v -0.754765 0.000000 4.500000
v 0.662156 0.000000 5.500000
v 0.680000 0.000000 5.475502
v 0.654765 0.000000 5.500000
v 0.654765 0.000000 4.500000
v 0.680000 0.000000 4.524498
v 0.662156 0.000000 4.500000
v -0.377382 0.000000 5.600000
v -0.359661 0.071723 5.600000
v -0.307194 0.137732 5.600000
v -0.223945 0.191097 5.600000
v -0.117968 0.225711 5.600000
v 0.000000 0.237688 5.600000
v 0.117968 0.225711 5.600000
v 0.223945 0.191097 5.600000
v 0.307194 0.137732 5.600000
v 0.354362 0.078389 5.600000
v 0.327383 0.000000 5.600000
v -0.377382 0.000000 4.400000
v -0.359661 0.071723 4.400000
v -0.307194 0.137732 4.400000
v -0.223945 0.191097 4.400000
v -0.117968 0.225711 4.400000
v 0.000000 0.237688 4.400000
v 0.117968 0.225711 4.400000
v 0.223945 0.191097 4.400000
v 0.307194 0.137732 4.400000
v 0.354362 0.078389 4.400000
v 0.327383 0.000000 4.400000
v -0.910915 0.077262 5.475502
v -0.870395 0.150957 5.483366
v -0.890054 0.219641 5.475502
v -0.890054 0.219641 4.524498
v -0.870395 0.150957 4.516634
v -0.910915 0.077262 4.524498
v 0.540298 0.418960 4.940000
v 0.486737 0.436363 4.940000
v 0.430421 0.436363 4.940000
v 0.376861 0.418960 4.940000
v 0.331300 0.385858 4.940000
v 0.540298 0.098197 4.940000
v 0.585858 0.131299 4.940000
v 0.618960 0.176860 4.940000
v 0.636363 0.230420 4.940000
v 0.636363 0.286737 4.940000
v 0.618960 0.340297 4.940000
v 0.585858 0.385858 4.940000
v 0.540298 0.418960 5.060000
v 0.486737 0.436363 5.060000
v 0.430421 0.436363 5.060000
v 0.376861 0.418960 5.060000
v 0.331300 0.385858 5.060000
v 0.540298 0.098197 5.060000
v 0.585858 0.131299 5.060000
v 0.618960 0.176860 5.060000
v 0.636363 0.230420 5.060000
v 0.636363 0.286737 5.060000
v 0.618960 0.340297 5.060000
v 0.585858 0.385858 5.060000
v 0.458579 0.258579 4.940000
v 0.458579 0.258579 5.060000
vt 0.487500 0.538064
vt 0.437500 0.500470
vt 0.450000 0.462876
vt 0.450000 0.538064
vt 0.462500 0.462876
vt 0.462500 0.538064
vt 0.475000 0.462876
vt 0.475000 0.538064
vt 0.481250 0.462876
vt 0.481250 0.538064
vt 0.489028 0.688440
vt 0.487500 0.462876
vt 0.487500 0.321710
vt 0.489028 0.312500
vt 0.610972 0.688440
vt 0.387500 0.312500
vt 0.399122 0.312500
vt 0.400000 0.312500
vt 0.411858 0.312500
vt 0.412500 0.312500
vt 0.424692 0.312500
vt 0.425308 0.312500
vt 0.437500 0.312500
vt 0.451716 0.007647
vt 0.408159 0.029841
vt 0.373591 0.064409
vt 0.351397 0.107966
vt 0.347574 0.132108
vt 0.357522 0.129254
vt 0.343750 0.156250
vt 0.387500 0.688440
vt 0.399122 0.688440
vt 0.400000 0.688440
vt 0.411858 0.688440
vt 0.412500 0.688440
vt 0.424692 0.688440
vt 0.500000 1.000000
vt 0.451716 0.992353
vt 0.408159 0.970159
vt 0.373591 0.935591
vt 0.351397 0.892034
vt 0.347574 0.867892
vt 0.343750 0.843750
vt 0.400000 0.321710
vt 0.412500 0.321710
vt 0.400000 0.679230
vt 0.425000 0.321710
vt 0.425000 0.500470
vt 0.412500 0.679230
vt 0.437500 0.321710
vt 0.644095 0.111221
vt 0.623074 0.069941
vt 0.589721 0.036554
vt 0.547263 0.014890
vt 0.500000 0.007387
vt 0.452737 0.014890
vt 0.410279 0.036554
vt 0.376926 0.069941
vt 0.358028 0.107031
vt 0.500000 0.150000
vt 0.651195 0.156048
vt 0.623074 0.929606
vt 0.589721 0.962925
vt 0.547262 0.984529
vt 0.500000 0.991997
vt 0.452737 0.984529
vt 0.410279 0.962925
vt 0.376926 0.929606
vt 0.358028 0.892517
vt 0.357522 0.869982
vt 0.349549 0.843518
vt 0.651195 0.843548
vt 0.644095 0.888375
vt 0.500000 0.837500
vt 0.481250 0.538064
vt 0.475000 0.679230
vt 0.475000 0.538064
vt 0.462500 0.679230
vt 0.462500 0.538064
vt 0.450000 0.679230
vt 0.450000 0.538064
vt 0.437500 0.679230
vt 0.450000 0.321710
vt 0.462500 0.321710
vt 0.450000 0.462876
vt 0.475000 0.321710
vt 0.462500 0.462876
vt 0.481250 0.321710
vt 0.475000 0.462876
vt 0.437500 0.500470
vt 0.425000 0.679230
vt 0.481250 0.462876
vt 0.481250 0.679230
vt 0.487500 0.679230
vt 0.610972 0.312500
vt 0.612702 0.688440
vt 0.347851 0.156086
vt 0.349549 0.156018
vt 0.347851 0.843586
vt 0.575597 0.153024
vt 0.572048 0.130610
vt 0.561537 0.109971
vt 0.544861 0.093277
vt 0.523631 0.082445
vt 0.500000 0.078694
vt 0.476369 0.082445
vt 0.455139 0.093277
vt 0.438463 0.109971
vt 0.429014 0.128515
vt 0.424774 0.153009
vt 0.575597 0.840524
vt 0.572047 0.862937
vt 0.561537 0.883553
vt 0.544861 0.900213
vt 0.523631 0.911014
vt 0.500000 0.914749
vt 0.476369 0.911014
vt 0.455139 0.900213
vt 0.438463 0.883553
vt 0.429014 0.865008
vt 0.424774 0.840509
vt 0.624307 0.312500
vt 0.624777 0.318753
vt 0.612702 0.312500
vt 0.375000 0.312500
vt 0.386575 0.312500
vt 0.375000 0.688440
vt 0.375000 0.682187
vt 0.386575 0.688440
vt 0.624307 0.688440
vt 0.612500 0.679230
vt 0.612500 0.321710
vt 0.618750 0.321710
vt 0.387500 0.321710
vt 0.387500 0.679230
vt 0.375000 0.321710
vt 0.380841 0.679230
vt 0.375000 0.679230
vt 0.375000 0.319369
vt 0.375000 0.318753
vt 0.380841 0.321710
vt 0.624834 0.681434
vt 0.624777 0.682187
vt 0.618750 0.679230
vt 0.375000 0.312500
vt 0.387500 0.312500
vt 0.387500 0.688440
vt 0.375000 0.688440
vt 0.400000 0.312500
vt 0.400000 0.688440
vt 0.412500 0.312500
vt 0.412500 0.688440
vt 0.425000 0.312500
vt 0.425000 0.688440
vt 0.537500 0.312500
vt 0.550000 0.312500
vt 0.550000 0.688440
vt 0.537500 0.688440
vt 0.562500 0.312500
vt 0.562500 0.688440
vt 0.575000 0.312500
vt 0.575000 0.688440
vt 0.587500 0.312500
vt 0.587500 0.688440
vt 0.600000 0.312500
vt 0.600000 0.688440
vt 0.612500 0.312500
vt 0.612500 0.688440
vt 0.625000 0.312500
vt 0.625000 0.688440
vt 0.626409 0.064408
vt 0.648603 0.107966
vt 0.500000 0.150000
vt 0.591842 0.029841
vt 0.548284 0.007647
vt 0.500000 -0.000000
vt 0.500000 0.312500
vt 0.451716 0.304853
vt 0.548284 0.304853
vt 0.591841 0.282659
vt 0.626409 0.248091
vt 0.648603 0.204534
vt 0.656250 0.156250
vt 0.648603 0.892034
vt 0.626409 0.935591
vt 0.500000 0.837500
vt 0.591841 0.970159
vt 0.548284 0.992353
vt 0.500000 1.000000
vt 0.451716 0.695147
vt 0.500000 0.687500
vt 0.548284 0.695147
vt 0.591842 0.717341
vt 0.626409 0.751908
vt 0.648603 0.795466
vt 0.656250 0.843750
vn 0.310479 0.950580 0.000000
vn 0.476013 0.879438 0.000000
vn 0.476013 0.879438 0.000000
vn 0.661597 0.749860 0.000000
vn 0.661597 0.749860 0.000000
vn 0.990623 0.136626 0.000000
vn 0.990623 0.136626 0.000000
vn 0.690569 -0.723266 0.000000
vn 0.690569 -0.723266 0.000000
vn 0.970807 0.239861 0.000000
vn 0.970807 0.239861 0.000000
vn 0.970807 0.239861 0.000000
vn 0.970807 0.239861 0.000000
vn 0.000000 -0.815302 -0.579036
vn 0.000000 -0.815302 -0.579036
vn 0.000000 -0.815302 -0.579036
vn 0.000000 -0.815302 -0.579036
vn 0.000000 -0.815306 0.579031
vn 0.000000 -0.815305 0.579031
vn 0.000000 -0.815305 0.579031
vn 0.000000 -0.815305 0.579031
vn 0.000000 0.000000 -1.000000
vn 0.000000 0.000000 -1.000000
vn 0.000000 0.000000 -1.000000
vn 0.000000 0.000000 -1.000000
vn 0.000000 0.000000 1.000000
vn 0.000000 0.000000 1.000000
vn 0.000000 0.000000 1.000000
vn 0.000000 0.000000 1.000000
vn 0.000000 0.000000 -1.000000
vn 0.000000 0.000000 -1.000000
vn 0.000000 0.000000 -1.000000
vn 0.000000 0.000000 -1.000000
vn 0.000000 0.000000 1.000000
vn 0.000000 0.000000 1.000000
vn 0.000000 0.000000 1.000000
vn 0.000000 0.000000 1.000000
vn 0.000000 0.000000 -1.000000
vn 0.000000 0.000000 -1.000000
vn 0.000000 0.000000 -1.000000
vn 0.000000 0.000000 -1.000000
vn 0.000000 1.000000 0.000000
vn 0.000000 1.000000 0.000000
vn 0.000000 1.000000 0.000000
vn 0.000000 1.000000 0.000000
vn 0.000000 0.000000 1.000000
vn 0.000000 0.000000 1.000000
vn 0.000000 0.000000 1.000000
vn 0.000000 0.000000 1.000000
vn 0.000000 -1.000000 0.000000
vn 0.000000 -1.000000 0.000000
vn 0.000000 -1.000000 0.000000
vn 0.000000 -1.000000 0.000000
vn 0.000000 -1.000000 0.000000
vn 0.000000 -1.000000 0.000000
vn 0.000000 -1.000000 0.000000
vn 0.000000 -1.000000 0.000000
vn 0.000000 -1.000000 0.000000
vn 0.000000 -1.000000 0.000000
vn -0.117900 0.052645 0.991629
vn -0.129022 0.041009 0.990793
vn -0.144903 -0.007934 0.989414
vn -0.143189 -0.008629 0.989658
vn -0.143189 -0.008629 0.989658
vn -0.106705 0.106100 0.988614
vn -0.112261 0.183472 0.976594
vn -0.133138 0.427376 0.894217
vn -0.118279 0.261106 0.958037
vn -0.113362 0.604663 0.788373
vn -0.114097 0.602785 0.789704
vn 0.000000 0.705291 0.708918
vn 0.000000 0.705291 0.708918
vn 0.143690 0.690272 0.709139
vn 0.143692 0.690271 0.709139
vn 0.297123 0.638501 0.709953
vn 0.297121 0.638503 0.709953
vn 0.462080 0.528922 0.711845
vn 0.462079 0.528924 0.711845
vn 0.553548 0.439992 0.707101
vn 0.553548 0.439992 0.707101
vn 0.488308 -0.511425 0.707106
vn 0.488308 -0.511425 0.707106
vn 0.488308 -0.511425 0.707106
vn 0.488308 -0.511425 0.707106
vn 0.686459 0.169618 0.707110
vn 0.686459 0.169618 0.707110
vn 0.686459 0.169618 0.707110
vn 0.686459 0.169618 0.707110
vn -0.117900 0.052645 -0.991629
vn -0.129022 0.041009 -0.990793
vn -0.107206 0.082766 -0.990786
vn -0.106705 0.106100 -0.988614
vn -0.112261 0.183472 -0.976594
vn -0.118279 0.261106 -0.958036
vn -0.133138 0.427376 -0.894217
vn -0.114097 0.602785 -0.789704
vn -0.113362 0.604662 -0.788373
vn -0.000000 0.705291 -0.708918
vn -0.000000 0.705291 -0.708918
vn 0.143692 0.690271 -0.709139
vn 0.143690 0.690272 -0.709139
vn 0.297121 0.638502 -0.709953
vn 0.297123 0.638501 -0.709953
vn 0.462079 0.528924 -0.711845
vn 0.462080 0.528922 -0.711845
vn 0.553548 0.439992 -0.707101
vn 0.553548 0.439992 -0.707101
vn 0.488308 -0.511425 -0.707106
vn 0.488308 -0.511425 -0.707106
vn 0.488308 -0.511425 -0.707106
vn 0.488308 -0.511425 -0.707106
vn 0.686459 0.169618 -0.707110
vn 0.686459 0.169618 -0.707110
vn 0.686459 0.169618 -0.707110
vn 0.686459 0.169618 -0.707110
vn -0.782832 0.622234 0.000000
vn -0.782832 0.622234 0.000000
vn -0.486964 0.873422 0.000000
vn -0.486964 0.873422 0.000000
vn -0.294230 0.955735 0.000000
vn -0.294230 0.955735 0.000000
vn -0.168541 0.985695 0.000000
vn -0.168541 0.985695 0.000000
vn -0.033823 0.999428 0.000000
vn -0.033823 0.999428 0.000000
vn -0.033823 0.999428 0.000000
vn 0.198067 0.980188 0.000000
vn 0.182423 0.983220 0.000000
vn -0.928432 -0.371503 0.000000
vn -0.928432 -0.371503 0.000000
vn -0.928432 -0.371503 0.000000
vn -0.928432 -0.371503 0.000000
vn -0.211835 0.219047 0.952441
vn -0.245232 0.112764 0.962884
vn -0.194918 0.106879 0.974979
vn -0.159969 0.196088 0.967450
vn -0.156543 0.307675 0.938526
vn -0.111650 0.259949 0.959146
vn -0.083486 0.366857 0.926524
vn -0.056798 0.297148 0.953141
vn 0.000000 0.387796 0.921745
vn 0.000000 0.309115 0.951025
vn 0.083486 0.366857 0.926524
vn 0.056798 0.297147 0.953141
vn 0.156543 0.307675 0.938526
vn 0.111650 0.259948 0.959146
vn 0.210615 0.221543 0.952134
vn 0.159890 0.199171 0.966833
vn 0.262548 0.085530 0.961121
vn 0.237549 0.031890 0.970852
vn 0.320239 -0.110221 0.940903
vn 0.320239 -0.110221 0.940903
vn 0.212164 -0.073023 0.974502
vn -0.255632 0.063161 0.964709
vn -0.207840 0.051353 0.976814
vn -0.194918 0.106879 -0.974979
vn -0.159969 0.196088 -0.967450
vn 0.000000 0.000000 -1.000000
vn -0.111650 0.259949 -0.959146
vn -0.056798 0.297148 -0.953141
vn 0.000000 0.309115 -0.951025
vn 0.056798 0.297147 -0.953141
vn 0.111650 0.259948 -0.959146
vn 0.159890 0.199171 -0.966833
vn 0.237549 0.031890 -0.970852
vn 0.212164 -0.073023 -0.974502
vn -0.207840 0.051353 -0.976814
vn 0.690569 -0.723266 0.000000
vn 0.690569 -0.723266 0.000000
vn 0.690569 -0.723266 0.000000
vn 0.690569 -0.723266 0.000000
vn 0.661597 0.749860 0.000000
vn 0.782826 0.622240 0.000000
vn 0.782826 0.622240 0.000000
vn 0.661597 0.749860 0.000000
vn 0.401825 0.915717 0.000000
vn 0.414990 0.909826 0.000000
vn 0.198067 0.980188 0.000000
vn 0.414990 0.909826 0.000000
vn 0.401825 0.915716 0.000000
vn 0.661596 0.749860 0.000001
vn 0.661597 0.749860 0.000001
vn 0.782826 0.622240 0.000001
vn 0.782826 0.622240 0.000001
vn 0.690569 -0.723266 0.000000
vn 0.690569 -0.723266 0.000000
vn 0.690569 -0.723266 0.000000
vn 0.690569 -0.723266 0.000000
vn 0.970808 0.239859 0.000000
vn 0.970808 0.239859 0.000000
vn 0.970808 0.239859 0.000000
vn 0.970808 0.239859 0.000000
vn 0.000000 1.000000 0.000000
vn 0.000000 1.000000 0.000000
vn 0.000000 1.000000 0.000000
vn 0.000000 1.000000 0.000000
vn 0.000000 1.000000 0.000000
vn 0.000000 1.000000 0.000000
vn 0.000000 1.000000 0.000000
vn 0.000000 1.000000 0.000000
vn 0.000000 1.000000 0.000000
vn 0.000000 1.000000 0.000000
vn 0.000000 1.000000 0.000000
vn 0.000000 1.000000 0.000000
vn -0.000000 0.000000 1.000000
vn -0.255632 0.063161 -0.964709
vn -0.245232 0.112764 -0.962884
vn -0.211835 0.219047 -0.952441
vn -0.156543 0.307675 -0.938526
vn -0.083486 0.366857 -0.926524
vn 0.000000 0.387796 -0.921745
vn 0.083486 0.366857 -0.926524
vn 0.156543 0.307675 -0.938526
vn 0.210615 0.221543 -0.952134
vn 0.262547 0.085530 -0.961121
vn 0.320239 -0.110221 -0.940903
vn 0.320239 -0.110221 -0.940903
vn -0.107206 0.082766 0.990786
vn -0.144903 -0.007934 -0.989414
vn -0.143189 -0.008629 -0.989658
vn -0.143189 -0.008629 -0.989658
vn -0.989435 0.144980 0.000000
vn -0.989435 0.144980 0.000000
vn -0.989435 0.144980 0.000000
vn -0.989435 0.144980 0.000000
vn 0.453990 0.891007 0.000000
vn 0.156434 0.987688 0.000000
vn 0.156434 0.987688 0.000000
vn 0.453990 0.891007 0.000000
vn -0.156435 0.987688 0.000000
vn -0.156435 0.987688 0.000000
vn -0.453993 0.891005 0.000000
vn -0.453993 0.891005 0.000000
vn -0.587787 0.809016 0.000000
vn -0.587787 0.809016 0.000000
vn 0.587786 -0.809016 0.000000
vn 0.707110 -0.707104 0.000000
vn 0.707110 -0.707104 0.000000
vn 0.587786 -0.809016 0.000000
vn 0.891009 -0.453986 0.000000
vn 0.891009 -0.453986 0.000000
vn 0.987689 -0.156433 0.000000
vn 0.987689 -0.156433 0.000000
vn 0.987689 0.156433 0.000000
vn 0.987689 0.156433 0.000000
vn 0.891009 0.453986 0.000000
vn 0.891009 0.453986 0.000000
vn 0.707110 0.707103 0.000000
vn 0.707110 0.707103 0.000000
vn -0.000000 0.000000 -1.000000
vn -0.000000 0.000000 -1.000000
vn 0.000000 0.000000 -1.000000
vn 0.000000 0.000000 -1.000000
vn 0.000000 0.000000 -1.000000
vn -0.000000 0.000000 -1.000000
vn 0.000000 0.000000 -1.000000
vn 0.000000 0.000000 -1.000000
vn -0.000000 0.000000 -1.000000
vn -0.000000 0.000000 -1.000000
vn 0.000000 0.000000 -1.000000
vn 0.000000 0.000000 -1.000000
vn 0.000000 0.000000 -1.000000
vn -0.000000 0.000000 1.000000
vn -0.000000 0.000000 1.000000
vn 0.000000 0.000000 1.000000
vn 0.000000 0.000000 1.000000
vn 0.000000 0.000000 1.000000
vn 0.000000 0.000000 1.000000
vn 0.000000 0.000000 1.000000
vn 0.000000 0.000000 1.000000
vn 0.000000 0.000000 1.000000
vn 0.000000 0.000000 1.000000
vn 0.000000 0.000000 1.000000
vn 0.000000 0.000000 1.000000
vn 0.000000 0.000000 1.000000
s 1
g pCylinder2
usemtl initialShadingGroup
f 15/2/1 16/3/2 17/4/3
f 16/3/2 18/5/4 19/6/5 17/4/3
f 18/5/4 20/7/6 21/8/7 19/6/5
f 20/7/6 22/9/8 23/10/9 21/8/7
s 2
f 14/75/10 13/92/11 3/12/12 4/1/13
s off
f 11/90/14 9/85/15 16/3/16 15/2/17
f 10/81/18 11/90/19 15/2/20 17/4/21
f 9/85/22 7/87/23 18/5/24 16/3/25
f 8/79/26 10/81/27 17/4/28 19/6/29
f 7/87/30 5/89/31 20/7/32 18/5/33
f 6/77/34 8/79/35 19/6/36 21/8/37
f 5/89/38 13/92/39 22/9/40 20/7/41
f 13/92/42 14/75/43 23/10/44 22/9/45
f 14/75/46 6/77/47 21/8/48 23/10/49
f 73/11/50 72/94/51 4/1/52 3/12/53 69/13/54 68/14/55 45/95/56 44/132/57 66/131/58 65/15/59
s 3
f 24/122/60 97/123/61 96/133/62 44/132/63 43/124/64
f 25/134/65 26/16/66 28/17/67 27/44/68
f 27/44/68 28/18/67 30/19/69 29/45/70
f 29/45/70 30/20/69 32/21/71 31/47/72
f 31/47/72 32/22/71 34/23/73 33/50/74
f 33/24/74 34/56/73 36/57/75 35/25/76
f 35/25/76 36/57/75 38/58/77 37/26/78
f 37/26/78 38/58/77 40/59/79 39/27/80
s off
f 39/27/81 40/59/82 41/29/83 42/28/84
f 42/28/85 41/29/86 70/98/87 69/30/88
s 4
f 46/127/89 100/128/90 99/137/91 47/135/92 48/129/93
f 48/31/93 47/135/92 49/46/94 50/32/95
f 50/33/95 49/46/94 51/49/96 52/34/97
f 52/35/97 51/49/96 54/91/98 53/36/99
f 53/65/99 54/37/98 56/38/100 55/66/101
f 55/66/101 56/38/100 58/39/102 57/67/103
f 57/67/103 58/39/102 60/40/104 59/68/105
f 59/68/105 60/40/104 62/41/106 61/69/107
s off
f 61/69/108 62/41/109 64/42/110 63/70/111
f 63/70/112 64/42/113 72/43/114 71/71/115
s 5
f 99/137/116 98/141/117 25/134/118 47/135/119
f 25/134/118 27/44/120 49/46/121 47/135/119
f 27/44/120 29/45/122 51/49/123 49/46/121
f 29/45/122 31/47/124 12/48/125 54/91/126 51/49/123
f 31/47/124 33/50/127 11/90/128 12/48/125
s off
f 44/132/129 96/133/130 101/144/131 66/131/132
s 6
f 26/52/133 24/51/134 75/101/135 76/102/136
f 28/53/137 26/52/133 76/102/136 77/103/138
f 30/54/139 28/53/137 77/103/138 78/104/140
f 32/55/141 30/54/139 78/104/140 79/105/142
f 34/56/143 32/55/141 79/105/142 80/106/144
f 36/57/145 34/56/143 80/106/144 81/107/146
f 38/58/147 36/57/145 81/107/146 82/108/148
f 40/59/149 38/58/147 82/108/148 83/109/150
f 70/98/151 41/29/152 40/59/149 83/109/150 84/110/153
f 24/51/134 43/61/154 74/100/155 75/101/135
s 7
f 86/112/156 87/113/157 2/74/158
f 87/113/157 88/114/159 2/74/158
f 88/114/159 89/115/160 2/74/158
f 89/115/160 90/116/161 2/74/158
f 90/116/161 91/117/162 2/74/158
f 91/117/162 92/118/163 2/74/158
f 92/118/163 93/119/164 2/74/158
f 93/119/164 94/120/165 2/74/158
f 94/120/165 95/121/166 2/74/158
f 85/111/167 86/112/156 2/74/158
s off
f 6/77/168 14/75/169 64/93/170 62/76/171
s 5
f 8/79/172 6/77/173 62/76/174 60/78/175
f 10/81/176 8/79/172 60/78/175 58/80/177
f 11/90/128 10/81/176 58/80/177 56/82/178
f 33/50/127 35/83/179 9/85/180 11/90/128
f 35/83/179 37/84/181 7/87/182 9/85/180
f 37/84/181 39/86/183 5/89/184 7/87/182
s off
f 39/86/185 42/88/186 13/92/187 5/89/188
s 5
f 12/48/125 11/90/128 56/82/178 54/91/126
s 2
f 13/92/11 42/88/189 69/13/190 3/12/12
f 64/93/191 14/75/10 4/1/13 72/94/192
s off
f 43/124/193 44/132/194 45/95/195
f 65/15/196 66/131/197 67/96/198
f 68/97/199 69/30/200 70/98/201
f 71/71/202 72/43/203 73/99/204
s 6
f 75/101/135 74/100/155 1/60/205
f 76/102/136 75/101/135 1/60/205
f 77/103/138 76/102/136 1/60/205
f 78/104/140 77/103/138 1/60/205
f 79/105/142 78/104/140 1/60/205
f 80/106/144 79/105/142 1/60/205
f 81/107/146 80/106/144 1/60/205
f 82/108/148 81/107/146 1/60/205
f 83/109/150 82/108/148 1/60/205
f 84/110/153 83/109/150 1/60/205
s 7
f 67/72/206 46/73/207 86/112/156 85/111/167
f 46/73/207 48/62/208 87/113/157 86/112/156
f 48/62/208 50/63/209 88/114/159 87/113/157
f 50/63/209 52/64/210 89/115/160 88/114/159
f 52/64/210 53/65/211 90/116/161 89/115/160
f 53/65/211 55/66/212 91/117/162 90/116/161
f 55/66/212 57/67/213 92/118/163 91/117/162
f 57/67/213 59/68/214 93/119/164 92/118/163
f 59/68/214 61/69/215 94/120/165 93/119/164
f 61/69/215 63/70/216 71/71/217 95/121/166 94/120/165
s 3
f 98/141/218 97/140/61 24/125/60 26/126/66 25/134/65
s 4
f 101/144/219 100/143/90 46/130/89 67/96/220 66/131/221
s off
f 96/136/222 98/141/223 99/137/224 101/138/225
s 3
f 96/139/62 97/140/61 98/141/218
s 4
f 99/142/91 100/143/90 101/144/219
s 9
f 102/145/226 103/146/227 115/147/228 114/148/229
f 103/146/227 104/149/230 116/150/231 115/147/228
f 104/149/230 105/151/232 117/152/233 116/150/231
f 105/151/232 106/153/234 118/154/235 117/152/233
f 107/155/236 108/156/237 120/157/238 119/158/239
f 108/156/237 109/159/240 121/160/241 120/157/238
f 109/159/240 110/161/242 122/162/243 121/160/241
f 110/161/242 111/163/244 123/164/245 122/162/243
f 111/163/244 112/165/246 124/166/247 123/164/245
f 112/165/246 113/167/248 125/168/249 124/166/247
f 113/167/248 102/169/226 114/170/229 125/168/249
s 11
f 103/171/250 102/172/251 126/173/252
f 104/174/253 103/171/250 126/173/252
f 105/175/254 104/174/253 126/173/252
f 106/176/255 105/175/254 126/173/252
f 108/177/256 107/178/257 126/173/252
f 109/179/258 108/177/256 126/173/252
f 110/180/259 109/179/258 126/173/252
f 111/181/260 110/180/259 126/173/252
f 112/182/261 111/181/260 126/173/252
f 113/183/262 112/182/261 126/173/252
f 102/172/251 113/183/262 126/173/252
s 13
f 114/184/263 115/185/264 127/186/265
f 115/185/264 116/187/266 127/186/265
f 116/187/266 117/188/267 127/186/265
f 117/188/267 118/189/268 127/186/265
f 119/190/269 120/191/270 127/186/265
f 120/191/270 121/192/271 127/186/265
f 121/192/271 122/193/272 127/186/265
f 122/193/272 123/194/273 127/186/265
f 123/194/273 124/195/274 127/186/265
f 124/195/274 125/196/275 127/186/265
f 125/196/275 114/184/263 127/186/265
