# This file uses meters as units for non-parametric coordinates.

mtllib papercrushedball.mtl
g default
v 0.265876 -0.888401 -11.430303
v 0.830298 -0.773963 -11.128531
v 0.392743 0.692616 -11.521900
v 0.688326 0.716450 -11.498138
v -0.042631 1.062684 -13.490272
v 0.513760 0.813783 -13.458793
v 0.167371 -0.893376 -13.059840
v 0.620055 -0.867416 -13.021815
v -0.240171 1.102498 -12.793367
v 0.753060 0.436786 -12.774352
v 0.658306 -0.894683 -12.742597
v -0.063493 -0.904518 -12.763041
v 0.119029 0.752817 -11.812333
v 0.629685 0.751438 -11.808122
v 0.804347 -0.958913 -11.725649
v 0.079651 -0.697771 -11.771226
v -0.161940 -0.082862 -11.660548
v 0.711988 -0.059232 -11.406846
v 1.383782 -0.031231 -11.557092
v 1.397230 0.003755 -13.000418
v 1.037119 0.009174 -13.504909
v 0.117536 0.006796 -13.516795
v -0.514708 -0.177515 -13.011102
v -0.745467 -0.065594 -11.810180
v -0.127085 -0.620487 -11.417912
v 0.830465 -0.296991 -11.097307
v 1.036969 -0.684366 -11.705671
v 0.927214 -0.603008 -12.763309
v 0.652503 -0.589371 -13.072301
v -0.102238 -0.614604 -13.100542
v -0.472282 -0.598942 -13.181329
v -0.486442 -0.402244 -11.786813
v -0.435187 0.942949 -13.119203
v 0.620046 0.525169 -13.103356
v 1.305839 0.135312 -12.790690
v 1.075748 0.661511 -11.793614
v 0.714925 0.244929 -11.655689
v 0.198540 0.410283 -11.686073
v -0.331246 0.437109 -11.811901
v -1.146226 0.964758 -12.799751
v 0.740799 -1.158996 -12.281281
v 0.637941 -0.666389 -12.292248
v 1.067320 0.008058 -12.310219
v 1.518889 0.303553 -12.297745
v 0.745420 0.999989 -12.296640
v -0.219661 1.448964 -12.296887
v -0.969438 0.533566 -12.301705
v -1.167553 -0.190494 -12.315018
v -0.569184 -0.804211 -12.703501
v -0.131590 -1.314714 -12.292466
vt 0.756256 0.569138
vt 0.799399 0.570959
vt 0.851662 0.644563
vt 0.750520 0.679096
vt 0.774836 0.498988
vt 0.755628 0.468367
vt 0.864792 0.642445
vt 0.901081 0.571120
vt 0.657785 0.571762
vt 0.655161 0.657403
vt 0.667039 0.502985
vt 0.831756 0.453338
vt 0.756419 0.394710
vt 0.711718 0.746226
vt 0.746432 0.701033
vt 0.585863 0.573363
vt 0.615076 0.654486
vt 0.624454 0.506009
vt 0.669030 0.457872
vt 0.818852 0.501373
vt 0.873894 0.401443
vt 0.642079 0.741667
vt 0.628435 0.465243
vt 0.177261 0.166131
vt 0.179205 0.271846
vt 0.106489 0.334801
vt 0.075631 0.168026
vt 0.250718 0.257763
vt 0.250969 0.184367
vt 0.107421 0.354911
vt 0.179908 0.405496
vt 0.001799 0.194936
vt 0.059848 0.331617
vt 0.120542 0.076527
vt 0.050777 0.106497
vt 0.254381 0.135215
vt 0.180554 0.001992
vt 0.256656 0.092067
vt 0.308241 0.103351
vt 0.306432 0.064235
vt 0.504303 0.258820
vt 0.501526 0.113805
vt 0.601456 0.148744
vt 0.606053 0.229978
vt 0.431815 0.255825
vt 0.431779 0.114921
vt 0.551875 0.287292
vt 0.505235 0.391106
vt 0.361069 0.206375
vt 0.360454 0.131818
vt 0.431940 0.001992
vt 0.503912 0.033098
vt 0.318665 0.166412
vt 0.315196 0.123257
vt 0.136734 0.426838
vt 0.202827 0.432390
vt 0.208412 0.473156
vt 0.103027 0.470171
vt 0.220456 0.540510
vt 0.093085 0.538877
vt 0.043343 0.409100
vt 0.097370 0.420895
vt 0.229734 0.621633
vt 0.123926 0.614979
vt 0.029195 0.478864
vt 0.233523 0.708814
vt 0.151116 0.664755
vt 0.356673 0.634780
vt 0.360123 0.507184
vt 0.404532 0.506755
vt 0.428674 0.582149
vt 0.278179 0.629691
vt 0.325410 0.489886
vt 0.364212 0.409100
vt 0.465354 0.454074
vt 0.473375 0.510639
vt 0.469895 0.553795
vt 0.432590 0.659499
vt 0.359194 0.719976
vt 0.239062 0.572317
vt 0.255771 0.489910
vt 0.310043 0.682158
vt 0.478483 0.519200
vt 0.478685 0.593758
vt 0.580324 0.643207
vt 0.446673 0.752677
vt 0.062020 0.957307
vt 0.007993 0.955020
vt 0.001799 0.893490
vt 0.094108 0.866580
vt 0.228369 0.866233
vt 0.172215 0.953623
vt 0.013409 0.729900
vt 0.167476 0.790897
vt 0.167477 0.994218
vt 0.101384 0.998008
vt 0.070723 0.712418
vt 0.151958 0.748758
vn -0.283959 0.464852 0.838618
vn -0.283050 0.464326 0.839216
vn -0.150071 0.191582 0.969935
vn -0.150070 0.191000 0.970051
vn 0.471673 0.812648 -0.342239
vn 0.480419 0.827347 -0.291026
vn 0.494180 0.847887 0.192027
vn 0.494180 0.847887 0.192027
vn -0.064690 0.019019 -0.997724
vn 0.051684 0.347003 -0.936439
vn 0.096296 0.008729 -0.995314
vn 0.101269 0.070992 -0.992323
vn 0.033174 -0.997910 -0.055446
vn 0.033174 -0.997910 -0.055446
vn 0.083273 -0.875703 -0.475615
vn 0.086492 -0.859119 -0.504414
vn 0.622048 0.749140 -0.227696
vn 0.717595 0.536735 -0.443817
vn 0.955932 -0.133544 -0.261458
vn 0.810892 -0.010089 -0.585108
vn -0.493404 -0.064639 -0.867395
vn -0.669507 -0.120821 -0.732914
vn -0.796713 0.305323 -0.521562
vn -0.522263 0.255661 -0.813559
vn 0.198884 0.760167 0.618540
vn 0.174823 0.798314 0.576308
vn 0.418056 0.884024 -0.209116
vn 0.419694 0.856614 -0.300117
vn 0.894244 -0.447578 -0.001134
vn 0.868327 0.433716 -0.240623
vn 0.650658 0.607201 0.456017
vn 0.947414 -0.129044 0.292837
vn 0.012610 -0.999592 0.025612
vn -0.003224 -0.990541 0.137181
vn -0.093772 -0.899754 0.426204
vn -0.087397 -0.865471 0.493277
vn -0.439196 0.352267 0.826447
vn -0.908185 0.329136 0.258591
vn -0.949575 -0.295207 0.105646
vn -0.648318 -0.121133 0.751672
vn -0.033463 0.984082 0.174538
vn -0.033463 0.984082 0.174538
vn 0.366729 0.239832 0.898883
vn 0.132775 0.441861 0.887203
vn -0.118582 -0.992726 0.020810
vn -0.118582 -0.992726 0.020810
vn -0.334496 0.214703 0.917614
vn -0.314559 0.171854 0.933552
vn -0.355887 0.274960 0.893163
vn -0.355287 0.202836 0.912485
vn 0.783214 -0.138385 0.606156
vn 0.928866 -0.348501 -0.125516
vn 0.916609 -0.385956 -0.104241
vn 0.818102 -0.574271 0.030373
vn 0.617328 -0.634639 -0.464908
vn 0.034639 -0.516668 -0.855485
vn 0.034355 -0.520064 -0.853436
vn -0.326023 -0.428119 -0.842866
vn -0.576957 -0.361035 -0.732648
vn -0.730276 -0.679452 -0.071008
vn -0.624090 -0.519299 0.583815
vn -0.625401 -0.750973 0.211927
vn -0.314380 -0.219853 0.923488
vn -0.314380 -0.219853 0.923488
vn 0.911565 -0.301418 0.279635
vn 0.969063 -0.222697 -0.106413
vn 0.970494 -0.175533 -0.165315
vn 0.953018 -0.299297 -0.046661
vn 0.769213 -0.462040 -0.441396
vn 0.060050 -0.136362 -0.988837
vn 0.060050 -0.136362 -0.988837
vn -0.228237 -0.751335 -0.619196
vn -0.225221 -0.788848 -0.571835
vn -0.651850 -0.665213 0.364119
vn -0.647566 -0.676868 0.350013
vn -0.503374 -0.857419 -0.106990
vn -0.304009 -0.774305 -0.555005
vn -0.304009 -0.774305 -0.555005
vn 0.534835 0.679547 -0.502163
vn 0.688524 0.720229 -0.084884
vn 0.575252 0.738836 0.351007
vn 0.553175 0.808050 -0.202613
vn 0.602665 0.321257 0.730471
vn -0.125246 -0.365746 0.922249
vn -0.125246 -0.365746 0.922249
vn -0.440274 0.385059 0.811104
vn -0.429268 0.222967 0.875223
vn -0.510205 0.628380 0.587222
vn -0.447118 0.894469 0.003220
vn -0.264238 0.919208 -0.291949
s 1
g pCube21
usemtl initialShadingGroup
f 17/68/1 18/69/2 37/70/3 38/71/4
s 2
f 9/41/5 10/42/6 6/43/7 5/44/8
s 3
f 33/93/9 34/94/10 21/91/11 22/90/12
s 4
f 7/55/13 8/56/14 11/57/15 12/58/16
s 5
f 34/12/17 35/5/18 20/6/19 21/13/20
s 6
f 22/32/21 23/27/22 40/26/23 33/33/24
s 2
f 13/49/25 14/50/26 45/46/27 46/45/28
s 5
f 43/1/29 44/2/30 36/3/31 19/4/32
s 4
f 50/60/33 41/59/34 15/63/35 16/64/36
s 6
f 39/28/37 47/25/38 48/24/39 24/29/40
s 2
f 3/53/41 4/54/42 14/50/26 13/49/25
s 5
f 18/69/43 19/74/32 36/75/31 37/70/44
s 4
f 16/64/36 15/63/35 2/66/45 1/67/46
s 6
f 38/71/47 39/78/37 24/79/40 17/68/48
s 1
f 25/72/49 26/73/50 18/69/2 17/68/1
s 5
f 26/14/51 27/10/52 19/4/32 18/15/43
f 42/9/53 43/1/29 19/4/32 27/10/52
f 21/13/20 20/6/19 28/11/54 29/19/55
s 3
f 22/90/12 21/91/11 29/92/56 30/87/57
s 6
f 30/87/58 31/88/59 23/89/22 22/90/21
f 24/29/40 48/24/39 49/34/60 32/36/61
f 17/68/48 24/79/40 32/82/61 25/72/62
s 1
f 1/80/63 2/81/64 26/73/50 25/72/49
s 5
f 2/22/65 15/17/66 27/10/52 26/14/51
f 41/16/67 42/9/53 27/10/52 15/17/66
f 29/19/55 28/11/54 11/18/68 8/23/69
s 3
f 30/87/57 29/92/56 8/95/70 7/96/71
s 6
f 7/55/72 12/58/73 31/61/59 30/62/58
f 32/36/61 49/34/60 50/37/74 16/38/75
f 25/39/62 32/36/61 16/38/75 1/40/76
s 3
f 5/97/77 6/98/78 34/94/10 33/93/9
s 5
f 10/20/79 35/5/18 34/12/17 6/21/80
f 14/7/81 36/3/31 44/2/30 45/8/82
f 37/70/44 36/75/31 14/83/81 4/76/83
s 1
f 38/71/4 37/70/3 4/76/84 3/77/85
s 6
f 13/84/86 39/78/37 38/71/47 3/77/87
f 46/85/88 47/86/38 39/78/37 13/84/86
f 33/47/24 40/48/23 9/41/89 5/44/90
s 5
f 28/11/54 42/9/53 41/16/67 11/18/68
f 20/6/19 43/1/29 42/9/53 28/11/54
f 35/5/18 44/2/30 43/1/29 20/6/19
f 45/46/82 44/51/30 35/52/18 10/42/79
s 2
f 46/45/28 45/46/27 10/42/6 9/41/5
s 6
f 9/30/89 40/26/23 47/25/38 46/31/88
f 48/24/39 47/25/38 40/26/23 23/27/22
f 49/34/60 48/24/39 23/27/22 31/35/59
f 50/60/74 49/65/60 31/61/59 12/58/73
s 4
f 12/58/16 11/57/15 41/59/34 50/60/33
