# This file uses centimeters as units for non-parametric coordinates.

mtllib Tabletemp.mtl
g default
v -10.000000 -6.500000 -13.000000
v -8.000000 -6.500000 -13.000000
v -10.000000 -1.500000 -13.000000
v -8.000000 -1.500000 -13.000000
v -8.000000 -1.500000 -15.000000
v -8.000000 -6.500000 -15.000000
v 8.000000 -6.500000 -13.000000
v 10.000000 -6.500000 -13.000000
v 8.000000 -1.500000 -13.000000
v 10.000000 -1.500000 -13.000000
v 8.000000 -1.500000 -15.000000
v 8.000000 -6.500000 -15.000000
v -8.000000 -6.500000 15.000000
v -8.000000 -1.500000 15.000000
v -10.000000 -1.500000 13.000000
v -8.000000 -1.500000 13.000000
v -10.000000 -6.500000 13.000000
v -8.000000 -6.500000 13.000000
v 8.000000 -6.500000 15.000000
v 8.000000 -1.500000 15.000000
v 8.000000 -1.500000 13.000000
v 10.000000 -1.500000 13.000000
v 8.000000 -6.500000 13.000000
v 10.000000 -6.500000 13.000000
v -9.900010 -0.100000 14.900010
v 9.900010 -0.100000 14.900010
v -9.900010 -0.100000 -14.900010
v 9.900010 -0.100000 -14.900010
v -9.877550 -1.500000 -15.000000
v -10.000000 -1.500000 -14.877550
v -10.000000 -6.500000 -14.877550
v -9.877550 -6.500000 -15.000000
v 10.000000 -1.500000 -14.877550
v 9.877550 -1.500000 -15.000000
v 10.000000 -6.500000 -14.877550
v 9.877550 -6.500000 -15.000000
v -10.000000 -6.500000 14.877550
v -9.877550 -6.500000 15.000000
v -10.000000 -1.500000 14.877550
v -9.877550 -1.500000 15.000000
v 10.000000 -6.500000 14.877550
v 9.877550 -6.500000 15.000000
v 9.877550 -1.500000 15.000000
v 10.000000 -1.500000 14.877550
v 10.000000 -0.199990 14.877550
v 9.950010 -0.150000 14.950010
v 9.877550 -0.199990 15.000000
v -9.877550 -0.199990 15.000000
v -9.950010 -0.150000 14.950010
v -10.000000 -0.199990 14.877550
v 9.877550 -0.199990 -15.000000
v 9.950010 -0.150000 -14.950010
v 10.000000 -0.199990 -14.877550
v -10.000000 -0.199990 -14.877550
v -9.950010 -0.150000 -14.950010
v -9.877550 -0.199990 -15.000000
vt 0.375000 0.000000
vt 0.625000 0.000000
vt 0.625000 0.250000
vt 0.875000 0.000000
vt 0.875000 0.250000
vt 0.375000 0.000000
vt 0.625000 0.250000
vt 0.375000 0.250000
vt 0.125000 0.000000
vt 0.125000 0.250000
vt 0.625000 0.000000
vt 0.625000 0.500000
vt 0.375000 0.500000
vt 0.375000 0.750000
vt 0.875000 0.000000
vt 0.875000 0.250000
vt 0.375000 0.250000
vt 0.625000 0.500000
vt 0.375000 0.500000
vt 0.375000 0.750000
vt 0.125000 0.000000
vt 0.125000 0.250000
vt 0.625000 1.000000
vt 0.375000 1.000000
vt 0.625000 0.765306
vt 0.625000 1.000000
vt 0.375000 1.000000
vt 0.625000 0.750000
vt 0.625000 1.000000
vt 0.390306 1.000000
vt 0.375000 0.984694
vt 0.625000 0.750000
vt 0.625000 0.984694
vt 0.609694 1.000000
vt 0.375000 1.000000
vt 0.376250 0.250833
vt 0.623750 0.250833
vt 0.625000 0.226227
vt 0.375000 0.523769
vt 0.376250 0.499167
vt 0.623750 0.499167
vt 0.140306 0.250000
vt 0.140306 0.000000
vt 0.375000 0.250000
vt 0.390306 0.750000
vt 0.390306 0.500000
vt 0.625000 0.500000
vt 0.625000 0.750000
vt 0.375000 0.500000
vt 0.375000 0.750000
vt 0.625000 0.000000
vt 0.859694 0.000000
vt 0.859694 0.250000
vt 0.125000 0.000000
vt 0.359694 0.000000
vt 0.359694 0.250000
vt 0.125000 0.250000
vt 0.625000 0.250000
vt 0.375000 0.000000
vt 0.609694 0.000000
vt 0.609694 0.250000
vt 0.875000 0.000000
vt 0.875000 0.250000
vt 0.376531 0.000000
vt 0.626020 0.000000
vt 0.873980 0.000000
vt 0.873980 0.225002
vt 0.623469 0.750000
vt 0.126020 0.225002
vt 0.126020 0.000000
vt 0.373980 0.225002
vt 0.375000 0.500000
vt 0.375000 0.765306
vt 0.609694 0.500000
vt 0.625000 0.500000
vt 0.609694 0.750000
vt 0.390306 0.000000
vt 0.390306 0.250000
vt 0.640306 0.000000
vt 0.640306 0.250000
vt 0.623469 0.000000
vt 0.626020 0.225002
vt 0.373980 0.000000
vt 0.376531 0.225002
vt 0.625000 0.750000
vt 0.623469 0.524997
vt 0.376531 0.750000
vt 0.375000 0.750000
vt 0.375000 0.524998
vt 0.624373 0.238835
vt 0.623469 0.225003
vt 0.375623 0.237873
vt 0.375004 0.227168
vt 0.624375 0.512083
vt 0.625000 0.523773
vt 0.375625 0.512083
vt 0.376531 0.524998
vn 0.000000 0.000000 1.000000
vn 0.000000 0.000000 1.000000
vn 0.000000 0.000000 1.000000
vn 0.000000 0.000000 1.000000
vn 0.000000 0.000000 -1.000000
vn 0.000000 0.000000 -1.000000
vn 0.000000 0.000000 -1.000000
vn 0.000000 0.000000 -1.000000
vn 1.000000 0.000000 0.000000
vn 1.000000 0.000000 0.000000
vn 1.000000 0.000000 0.000000
vn 1.000000 0.000000 0.000000
vn -1.000000 0.000000 0.000000
vn -1.000000 0.000000 0.000000
vn -1.000000 0.000000 0.000000
vn -1.000000 0.000000 0.000000
vn 0.000000 0.000000 1.000000
vn 0.000000 0.000000 1.000000
vn 0.000000 0.000000 1.000000
vn 0.000000 0.000000 1.000000
vn 0.000000 0.000000 -1.000000
vn 0.000000 0.000000 -1.000000
vn 0.000000 0.000000 -1.000000
vn 0.000000 0.000000 -1.000000
vn 0.000000 -1.000000 0.000000
vn 0.000000 -1.000000 0.000000
vn 0.000000 -1.000000 0.000000
vn 0.000000 -1.000000 0.000000
vn 0.000000 -1.000000 0.000000
vn 1.000000 0.000000 0.000000
vn 1.000000 0.000000 0.000000
vn 1.000000 0.000000 0.000000
vn 1.000000 0.000000 0.000000
vn -1.000000 0.000000 0.000000
vn -1.000000 0.000000 0.000000
vn -1.000000 0.000000 0.000000
vn -1.000000 0.000000 0.000000
vn 0.000000 0.000000 1.000000
vn 0.000000 0.000000 1.000000
vn 0.000000 0.000000 1.000000
vn 0.000000 0.000000 1.000000
vn 0.000000 0.000000 -1.000000
vn 0.000000 0.000000 -1.000000
vn 0.000000 0.000000 -1.000000
vn 0.000000 0.000000 -1.000000
vn 0.000000 -1.000000 0.000000
vn 0.000000 -1.000000 0.000000
vn 0.000000 -1.000000 0.000000
vn 0.000000 -1.000000 0.000000
vn 0.000000 -1.000000 0.000000
vn 1.000000 0.000000 0.000000
vn 1.000000 0.000000 0.000000
vn 1.000000 0.000000 0.000000
vn 1.000000 0.000000 0.000000
vn -1.000000 0.000000 0.000000
vn -1.000000 0.000000 0.000000
vn -1.000000 0.000000 0.000000
vn -1.000000 0.000000 0.000000
vn 0.000000 0.000000 1.000000
vn 0.000000 0.000000 1.000000
vn 0.000000 0.000000 1.000000
vn 0.000000 0.000000 1.000000
vn 0.000000 0.000000 -1.000000
vn 0.000000 0.000000 -1.000000
vn 0.000000 0.000000 -1.000000
vn 0.000000 0.000000 -1.000000
vn 0.000000 -1.000000 0.000000
vn 0.000000 -1.000000 0.000000
vn 0.000000 -1.000000 0.000000
vn 0.000000 -1.000000 0.000000
vn 0.000000 -1.000000 0.000000
vn 1.000000 0.000000 0.000000
vn 1.000000 0.000000 0.000000
vn 1.000000 0.000000 0.000000
vn 1.000000 0.000000 0.000000
vn -1.000000 0.000000 0.000000
vn -1.000000 0.000000 0.000000
vn -1.000000 0.000000 0.000000
vn -1.000000 0.000000 0.000000
vn 0.000000 -1.000000 0.000000
vn 0.000000 -1.000000 0.000000
vn 0.000000 -1.000000 0.000000
vn 0.000000 -1.000000 0.000000
vn 0.000000 -1.000000 0.000000
vn 0.000000 -1.000000 0.000000
vn 0.000000 -1.000000 0.000000
vn 0.000000 -1.000000 0.000000
vn 0.000000 -1.000000 0.000000
vn 0.000000 -1.000000 0.000000
vn 0.000000 -1.000000 0.000000
vn 0.000000 -1.000000 0.000000
vn 0.000000 -1.000000 0.000000
vn 0.000000 -1.000000 0.000000
vn 0.000000 -1.000000 0.000000
vn 0.000000 -1.000000 0.000000
vn 0.000000 -1.000000 0.000000
vn 0.000000 -1.000000 0.000000
vn 0.000000 -1.000000 0.000000
vn 0.000000 -1.000000 0.000000
vn -0.000000 0.707107 0.707107
vn -0.000000 0.707107 0.707107
vn -0.000000 0.707107 0.707107
vn -0.000000 0.707107 0.707107
vn -0.000000 0.707107 0.707107
vn -0.000000 0.707107 0.707107
vn 0.707110 0.707103 0.000000
vn 0.707110 0.707103 0.000000
vn 0.707110 0.707103 0.000000
vn 0.707110 0.707103 0.000000
vn 0.707110 0.707103 0.000000
vn 0.707110 0.707103 0.000000
vn 0.000000 0.000000 1.000000
vn 0.000000 0.000000 1.000000
vn 0.000000 0.000000 1.000000
vn 0.000000 0.000000 1.000000
vn 0.000000 1.000000 0.000000
vn 0.000000 1.000000 0.000000
vn 0.000000 1.000000 0.000000
vn 0.000000 1.000000 0.000000
vn 0.000000 0.000000 -1.000000
vn 0.000000 0.000000 -1.000000
vn 0.000000 0.000000 -1.000000
vn 0.000000 0.000000 -1.000000
vn 1.000000 0.000000 0.000000
vn 1.000000 0.000000 0.000000
vn 1.000000 0.000000 0.000000
vn 1.000000 0.000000 0.000000
vn -1.000000 0.000000 0.000000
vn -1.000000 0.000000 0.000000
vn -1.000000 0.000000 0.000000
vn -1.000000 0.000000 0.000000
vn 0.000000 -1.000000 0.000000
vn 0.000000 -1.000000 0.000000
vn 0.000000 -1.000000 0.000000
vn 0.000000 -1.000000 0.000000
vn 0.000000 -1.000000 0.000000
vn -0.707110 0.707103 0.000000
vn -0.707110 0.707103 0.000000
vn -0.707110 0.707103 0.000000
vn -0.707110 0.707103 0.000000
vn -0.707110 0.707103 0.000000
vn -0.707110 0.707103 0.000000
vn -0.000000 0.707106 -0.707107
vn -0.000000 0.707106 -0.707107
vn -0.000000 0.707106 -0.707107
vn -0.000000 0.707106 -0.707107
vn -0.000000 0.707106 -0.707107
vn -0.000000 0.707106 -0.707107
vn -0.707108 0.000000 -0.707106
vn -0.707108 0.000000 -0.707106
vn -0.707108 0.000000 -0.707106
vn -0.707108 0.000000 -0.707106
vn 0.707108 0.000000 -0.707106
vn 0.707108 0.000000 -0.707106
vn 0.707108 0.000000 -0.707106
vn 0.707108 0.000000 -0.707106
vn -0.707108 0.000000 0.707106
vn -0.707108 0.000000 0.707106
vn -0.707108 0.000000 0.707106
vn -0.707108 0.000000 0.707106
vn 0.707108 0.000000 0.707106
vn 0.707108 0.000000 0.707106
vn 0.707108 0.000000 0.707106
vn 0.707108 0.000000 0.707106
vn 0.707105 0.000000 0.707108
vn 0.707105 0.000000 0.707108
vn 0.707104 -0.002105 0.707107
vn 0.707104 -0.002105 0.707107
vn -0.707105 0.000000 0.707108
vn -0.707105 0.000000 0.707108
vn -0.707104 -0.002105 0.707107
vn -0.707104 -0.002105 0.707107
vn 0.707105 0.000000 -0.707108
vn 0.707105 0.000000 -0.707108
vn 0.707104 -0.002105 -0.707107
vn 0.707104 -0.002105 -0.707107
vn -0.707105 0.000000 -0.707108
vn -0.707105 0.000000 -0.707108
vn -0.707104 -0.002105 -0.707107
vn -0.707104 -0.002105 -0.707107
vn 0.673890 -0.302895 0.673890
vn -0.673890 -0.302895 0.673890
vn 0.673890 -0.302895 -0.673890
vn -0.673890 -0.302895 -0.673890
s off
g pCube15
usemtl initialShadingGroup
f 1/1/1 2/2/2 4/3/3 3/44/4
f 32/45/5 29/46/6 5/47/7 6/48/8
f 2/2/9 6/4/10 5/5/11 4/3/12
f 30/42/13 31/43/14 1/1/15 3/44/16
f 7/6/17 8/51/18 10/7/19 9/8/20
f 11/49/21 34/74/22 36/76/23 12/50/24
f 12/50/25 36/76/26 35/25/27 8/26/28 7/27/29
f 8/51/30 35/52/31 33/53/32 10/7/33
f 12/9/34 7/6/35 9/8/36 11/10/37
f 40/78/38 38/77/39 13/11/40 14/58/41
f 15/13/42 16/12/43 18/28/44 17/14/45
f 17/14/46 18/28/47 13/29/48 38/30/49 37/31/50
f 13/11/51 18/15/52 16/16/53 14/58/54
f 17/54/55 37/55/56 39/56/57 15/57/58
f 19/59/59 42/60/60 43/61/61 20/17/62
f 21/19/63 22/18/64 24/32/65 23/20/66
f 23/20/67 24/32/68 41/33/69 42/34/70 19/35/71
f 44/80/72 41/79/73 24/62/74 22/63/75
f 23/21/76 19/59/77 20/17/78 21/22/79
f 14/58/80 16/16/81 21/22/82 20/17/83
f 4/3/84 5/5/85 11/10/86 9/8/87
f 3/44/88 4/3/89 16/12/90 15/13/91
f 4/3/92 9/8/93 21/22/94 16/16/95
f 9/8/96 10/7/97 22/18/98 21/19/99
f 25/36/100 49/92/101 48/84/102 47/91/103 46/90/104 26/37/105
f 26/37/106 46/90/107 45/38/108 53/95/109 52/94/110 28/41/111
f 48/84/112 40/64/113 43/81/114 47/91/115
f 25/36/116 26/37/117 28/41/118 27/40/119
f 29/87/120 56/97/121 51/86/122 34/68/123
f 45/82/124 44/65/125 33/66/126 53/67/127
f 54/69/128 30/70/129 39/83/130 50/71/131
f 31/73/132 32/45/133 6/48/134 2/23/135 1/24/136
f 50/93/137 49/92/138 25/36/139 27/40/140 55/96/141 54/39/142
f 56/97/143 55/96/144 27/40/145 28/41/146 52/94/147 51/86/148
f 30/72/149 29/46/150 32/45/151 31/73/152
f 34/74/153 33/75/154 35/25/155 36/76/156
f 37/55/157 38/77/158 40/78/159 39/56/160
f 42/60/161 41/79/162 44/80/163 43/61/164
s 1
f 43/81/165 44/65/166 45/82/167 47/91/168
s 2
f 39/83/169 40/64/170 48/84/171 50/71/172
s 3
f 33/85/173 34/68/174 51/86/175 53/95/176
s 4
f 29/87/177 30/88/178 54/89/179 56/97/180
s 1
f 45/82/167 46/90/181 47/91/168
s 2
f 48/84/171 49/92/182 50/93/172
s 3
f 51/86/175 52/94/183 53/95/176
s 4
f 54/39/179 55/96/184 56/97/180
