# This file uses meters as units for non-parametric coordinates.

mtllib trashcan.mtl
g default
v -15.000000 -22.499991 115.000000
v 15.000000 -22.499991 115.000000
v -15.000000 -22.499991 85.000000
v 15.000000 -22.499991 85.000000
v -18.900000 10.500011 118.900000
v 18.900000 10.500011 118.900000
v 18.900000 10.500011 81.100000
v -18.900000 10.500011 81.100000
v -20.456458 22.500010 119.950105
v -20.936092 22.020704 120.936092
v -19.950105 22.500010 120.456456
v 19.950105 22.500010 120.456456
v 20.936092 22.020704 120.936092
v 20.456458 22.500010 119.950105
v -19.950105 22.500010 79.543544
v -20.936092 22.020704 79.063908
v -20.456458 22.500010 80.049895
v 20.456458 22.500010 80.049895
v 20.936092 22.020704 79.063908
v 19.950105 22.500010 79.543544
v -19.390281 22.500010 118.900000
v -18.900000 22.500010 119.394984
v -18.900000 22.029119 118.900000
v 18.900000 22.500010 119.390279
v 19.394984 22.500010 118.900000
v 18.900000 22.029119 118.900000
v 19.390281 22.500010 81.100000
v 18.900000 22.500010 80.605016
v 18.900000 22.029119 81.100000
v -18.900000 22.500010 80.609719
v -19.394984 22.500010 81.100000
v -18.900000 22.029119 81.100000
vt 0.664336 0.325801
vt 0.664336 0.055480
vt 0.931777 0.001992
vt 0.931777 0.379289
vt 0.934657 0.370405
vt 0.934657 0.010876
vt 0.386516 0.325801
vt 0.386516 0.055480
vt 0.653958 0.001992
vt 0.653958 0.379289
vt 0.656837 0.010876
vt 0.656837 0.370405
vt 0.086946 0.383186
vt 0.427550 0.383186
vt 0.427550 0.723790
vt 0.086946 0.723790
vt 0.001945 0.727687
vt 0.272266 0.727687
vt 0.272266 0.998008
vt 0.001945 0.998008
vt 0.006267 0.010876
vt 0.010829 0.006314
vt 0.020292 0.015878
vt 0.015874 0.020339
vt 0.001945 0.001992
vt 0.370358 0.006314
vt 0.360895 0.015921
vt 0.020292 0.020339
vt 0.006267 0.370405
vt 0.015831 0.360943
vt 0.379242 0.001992
vt 0.374920 0.010876
vt 0.365356 0.020339
vt 0.360895 0.020339
vt 0.020292 0.360943
vt 0.010829 0.374967
vt 0.020292 0.365360
vt 0.374920 0.370405
vt 0.365313 0.360943
vt 0.001945 0.379289
vt 0.370358 0.374967
vt 0.360895 0.365403
vt 0.360895 0.360943
vt 0.379242 0.379289
vt 0.706972 0.706995
vt 0.706972 0.436675
vt 0.974413 0.383186
vt 0.974413 0.760484
vt 0.433540 0.760483
vt 0.433540 0.383186
vt 0.700982 0.436675
vt 0.700982 0.706995
vn 0.000000 1.000000 0.000000
vn 0.000000 1.000000 0.000000
vn 0.000000 1.000000 0.000000
vn 0.000000 1.000000 0.000000
vn 0.000000 -1.000000 0.000000
vn 0.000000 -1.000000 0.000000
vn 0.000000 -1.000000 0.000000
vn 0.000000 -1.000000 0.000000
vn -0.004354 0.999981 0.004354
vn -0.004365 0.999981 0.004366
vn 0.000000 1.000000 0.000000
vn 0.000000 1.000000 0.000000
vn -0.706866 0.707347 0.000000
vn -0.706866 0.707347 0.000000
vn -0.706866 0.707347 0.000000
vn -0.706866 0.707347 0.000000
vn 0.000000 0.707351 0.706863
vn 0.000000 0.707351 0.706863
vn 0.000000 0.707351 0.706863
vn 0.000000 0.707351 0.706863
vn 0.004354 0.999981 0.004354
vn 0.004365 0.999981 0.004365
vn 0.000000 1.000000 0.000000
vn 0.000000 1.000000 0.000000
vn 0.706866 0.707347 0.000000
vn 0.706866 0.707347 0.000000
vn 0.706866 0.707347 0.000000
vn 0.706866 0.707347 0.000000
vn -0.004354 0.999981 -0.004354
vn -0.004365 0.999981 -0.004365
vn 0.000000 1.000000 0.000000
vn 0.000000 1.000000 -0.000000
vn 0.000000 0.707351 -0.706863
vn 0.000000 0.707351 -0.706863
vn 0.000000 0.707351 -0.706863
vn 0.000000 0.707351 -0.706863
vn 0.004354 0.999981 -0.004354
vn 0.004365 0.999981 -0.004366
vn 0.000000 1.000000 -0.000000
vn 0.000000 1.000000 -0.000000
vn 0.690976 0.722878 -0.000043
vn 0.690976 0.722878 -0.000043
vn 0.690976 0.722878 -0.000043
vn 0.690976 0.722878 -0.000043
vn -0.000043 0.722877 -0.690976
vn -0.000043 0.722877 -0.690976
vn -0.000043 0.722877 -0.690976
vn -0.000043 0.722877 -0.690976
vn -0.690976 0.722878 0.000043
vn -0.690976 0.722878 0.000043
vn -0.690976 0.722878 0.000043
vn -0.690976 0.722878 0.000043
vn 0.000043 0.722878 0.690976
vn 0.000043 0.722878 0.690976
vn 0.000043 0.722878 0.690976
vn 0.000043 0.722878 0.690976
vn 0.000000 -0.132164 0.991228
vn 0.000000 -0.132164 0.991228
vn 0.000000 -0.132164 0.991228
vn 0.000000 -0.132164 0.991228
vn 0.000000 -0.132164 -0.991228
vn 0.000000 -0.132164 -0.991228
vn 0.000000 -0.132164 -0.991228
vn 0.000000 -0.132164 -0.991228
vn 0.991228 -0.132164 0.000000
vn 0.991228 -0.132164 0.000000
vn 0.991228 -0.132164 0.000000
vn 0.991228 -0.132164 0.000000
vn -0.991228 -0.132164 0.000000
vn -0.991228 -0.132164 0.000000
vn -0.991228 -0.132164 0.000000
vn -0.991228 -0.132164 0.000000
vn -0.296824 0.907628 0.296827
vn 0.296824 0.907628 0.296827
vn -0.296824 0.907628 -0.296827
vn 0.296824 0.907628 -0.296827
vn 0.571183 0.594701 -0.565756
vn 0.571183 0.594702 -0.565756
vn 0.571183 0.594702 -0.565756
vn -0.565754 0.594701 -0.571186
vn -0.565754 0.594701 -0.571186
vn -0.565754 0.594701 -0.571186
vn -0.571183 0.594701 0.565756
vn -0.571183 0.594702 0.565756
vn -0.571183 0.594702 0.565756
vn 0.565756 0.594701 0.571183
vn 0.565756 0.594702 0.571183
vn 0.565756 0.594702 0.571183
s off
g pCube22
usemtl initialShadingGroup
f 5/13/1 6/14/2 7/15/3 8/16/4
f 3/17/5 4/18/6 2/19/7 1/20/8
s 1
f 9/21/9 11/22/10 22/23/11 21/24/12
s off
f 10/9/13 9/11/14 17/12/15 16/10/16
f 11/22/17 10/25/18 13/31/19 12/26/20
s 1
f 12/26/21 14/32/22 25/33/23 24/27/24
s off
f 14/5/25 13/4/26 19/3/27 18/6/28
s 1
f 15/36/29 17/29/30 31/30/31 30/37/32
s off
f 16/40/33 15/36/34 20/41/35 19/44/36
s 1
f 18/38/37 20/41/38 28/42/39 27/39/40
s off
f 21/24/41 23/28/42 32/35/43 31/30/44
f 23/28/45 22/23/46 24/27/47 26/34/48
f 26/34/49 25/33/50 27/39/51 29/43/52
f 29/43/53 28/42/54 30/37/55 32/35/56
f 1/45/57 2/46/58 13/47/59 10/48/60
f 16/49/61 19/50/62 4/51/63 3/52/64
f 2/1/65 4/2/66 19/3/67 13/4/68
f 3/7/69 1/8/70 10/9/71 16/10/72
s 1
f 11/22/10 12/26/21 24/27/24 22/23/11
f 14/32/22 18/38/37 27/39/40 25/33/23
f 20/41/38 15/36/29 30/37/32 28/42/39
f 17/29/30 9/21/9 21/24/12 31/30/31
f 9/21/9 10/25/73 11/22/10
f 12/26/21 13/31/74 14/32/22
f 15/36/29 16/40/75 17/29/30
f 18/38/37 19/44/76 20/41/38
s off
f 21/24/77 22/23/78 23/28/79
f 24/27/80 25/33/81 26/34/82
f 27/39/83 28/42/84 29/43/85
f 30/37/86 31/30/87 32/35/88
